<svg xmlns="http://www.w3.org/2000/svg" xmlns:xlink="http://www.w3.org/1999/xlink" viewBox="0,0,256,256" width="144px" height="144px" fill-rule="nonzero"><g transform="translate(-38.4,-38.4) scale(1.3,1.3)"><g fill-opacity="0" fill="#dddddd" fill-rule="nonzero" stroke="none" stroke-width="1" stroke-linecap="butt" stroke-linejoin="miter" stroke-miterlimit="10" stroke-dasharray="" stroke-dashoffset="0" font-family="none" font-weight="none" font-size="none" text-anchor="none" style="mix-blend-mode: normal"><path d="M29.53846,226.46154v-196.92308h196.92308v196.92308z" id="bgRectangle"></path></g><g fill="none" fill-rule="nonzero" stroke="none" stroke-width="1" stroke-linecap="butt" stroke-linejoin="miter" stroke-miterlimit="10" stroke-dasharray="" stroke-dashoffset="0" font-family="none" font-weight="none" font-size="none" text-anchor="none" style="mix-blend-mode: normal"><g transform="scale(5.33333,5.33333)"><path d="M42,13v22c0,0.83 -0.14,1.62 -0.41,2.35c-0.7,1.98 -2.26,3.54 -4.24,4.24c-0.73,0.27 -1.52,0.41 -2.35,0.41h-22c-3.87,0 -7,-3.13 -7,-7v-22c0,-0.83 0.14,-1.62 0.41,-2.35c0.7,-1.98 2.26,-3.54 4.24,-4.24c0.73,-0.27 1.52,-0.41 2.35,-0.41h22c3.87,0 7,3.13 7,7z" fill="#4fc3f7"></path><path d="M20.78,42h-7.78c-3.87,0 -7,-3.13 -7,-7v-7.78z" fill="#0e5fa0"></path><path d="M29.28,42h-8.5l-14.78,-14.78v-8.5z" fill="#0277bd"></path><path d="M37.35,41.59c-0.73,0.27 -1.52,0.41 -2.35,0.41h-5.72l-23.28,-23.28v-5.72c0,-0.83 0.14,-1.62 0.41,-2.35z" fill="#0288d1"></path><path d="M41.59,37.35c-0.7,1.98 -2.26,3.54 -4.24,4.24l-30.94,-30.94c0.7,-1.98 2.26,-3.54 4.24,-4.24z" fill="#039be5"></path><path d="M42,29.28v5.72c0,0.83 -0.14,1.62 -0.41,2.35l-30.94,-30.94c0.73,-0.27 1.52,-0.41 2.35,-0.41h5.72z" fill="#03a9f4"></path><path d="M42,20.78v8.5l-23.28,-23.28h8.5z" fill="#29b6f6"></path><path d="M28.018,14.651c0.154,-0.092 0.313,-0.191 0.48,-0.277c0.431,-0.221 0.91,-0.332 1.397,-0.308c0.351,0.019 0.671,0.117 0.917,0.375c0.234,0.24 0.32,0.535 0.345,0.855c0.006,0.068 0.006,0.135 0.006,0.209v3.186c0,0.277 -0.037,0.313 -0.313,0.313h-0.75c-0.049,0 -0.098,0 -0.148,-0.006c-0.073,-0.006 -0.135,-0.068 -0.148,-0.141c-0.013,-0.068 -0.013,-0.135 -0.013,-0.203v-2.849c0.006,-0.117 -0.006,-0.227 -0.037,-0.338c-0.049,-0.191 -0.221,-0.326 -0.418,-0.338c-0.363,-0.024 -0.726,0.049 -1.058,0.203c-0.049,0.013 -0.08,0.062 -0.073,0.111v3.236c0,0.062 0,0.117 -0.013,0.178c0,0.086 -0.068,0.148 -0.154,0.148v0c-0.092,0.006 -0.184,0.006 -0.283,0.006h-0.652c-0.227,0 -0.277,-0.056 -0.277,-0.283v-2.91c0,-0.105 -0.006,-0.216 -0.03,-0.32c-0.043,-0.209 -0.221,-0.357 -0.431,-0.369c-0.369,-0.024 -0.744,0.049 -1.077,0.209c-0.049,0.013 -0.08,0.068 -0.068,0.117v3.279c0,0.227 -0.049,0.277 -0.277,0.277h-0.825c-0.216,0 -0.27,-0.062 -0.27,-0.27v-4.27c0,-0.049 0.006,-0.098 0.019,-0.148c0.024,-0.073 0.098,-0.117 0.172,-0.117h0.769c0.111,0 0.178,0.068 0.216,0.172c0.03,0.086 0.049,0.167 0.08,0.259c0.062,0 0.098,-0.043 0.141,-0.068c0.338,-0.209 0.695,-0.388 1.095,-0.461c0.308,-0.062 0.615,-0.062 0.923,0c0.289,0.062 0.548,0.234 0.714,0.48c0.013,0.019 0.024,0.03 0.037,0.043c-0.008,0.007 -0.002,0.007 0.004,0.02zM18.926,14.885c0.043,-0.013 0.08,-0.037 0.105,-0.073c0.111,-0.111 0.227,-0.216 0.351,-0.313c0.32,-0.246 0.72,-0.369 1.12,-0.338c0.16,0.006 0.216,0.056 0.227,0.209c0.013,0.209 0.006,0.424 0.006,0.634c0.006,0.086 0,0.167 -0.013,0.252c-0.024,0.111 -0.068,0.154 -0.178,0.167c-0.086,0.006 -0.167,0 -0.252,-0.006c-0.412,-0.037 -0.812,0.043 -1.2,0.172c-0.086,0.03 -0.086,0.092 -0.086,0.16v2.951c0,0.056 0,0.105 -0.006,0.16c-0.006,0.08 -0.068,0.141 -0.148,0.141c-0.043,0.006 -0.092,0.006 -0.135,0.006h-0.8c-0.043,0 -0.092,0 -0.135,-0.006c-0.08,-0.006 -0.141,-0.073 -0.148,-0.154c-0.006,-0.049 -0.006,-0.098 -0.006,-0.148v-4.184c0,-0.283 0.03,-0.313 0.313,-0.313h0.591c0.16,0 0.234,0.056 0.277,0.209c0.043,0.154 0.08,0.308 0.117,0.474zM21.325,16.595v-2.184c0.006,-0.148 0.062,-0.203 0.209,-0.209c0.32,-0.006 0.64,-0.006 0.96,0c0.141,0 0.184,0.043 0.197,0.184c0.006,0.056 0.006,0.105 0.006,0.16v4.097c0,0.068 -0.006,0.135 -0.013,0.203c-0.006,0.08 -0.068,0.135 -0.148,0.141c-0.037,0.006 -0.068,0.006 -0.105,0.006h-0.855c-0.03,0 -0.056,0 -0.086,-0.006c-0.086,-0.006 -0.16,-0.073 -0.167,-0.16c-0.006,-0.049 -0.006,-0.098 -0.006,-0.148c0.008,-0.682 0.008,-1.383 0.008,-2.084zM22.039,11.999c0.098,-0.006 0.197,0.013 0.289,0.043c0.332,0.111 0.504,0.4 0.474,0.775c-0.024,0.32 -0.264,0.578 -0.585,0.628c-0.135,0.024 -0.277,0.024 -0.412,0c-0.351,-0.068 -0.609,-0.326 -0.585,-0.769c0.037,-0.437 0.326,-0.677 0.819,-0.677zM16.717,16.091c-0.024,-0.32 -0.111,-0.634 -0.24,-0.923c-0.252,-0.529 -0.64,-0.917 -1.23,-1.052c-0.677,-0.148 -1.286,0 -1.84,0.412c-0.037,0.037 -0.08,0.068 -0.129,0.092c-0.013,-0.006 -0.024,-0.013 -0.024,-0.019c-0.019,-0.062 -0.03,-0.123 -0.049,-0.184c-0.049,-0.154 -0.111,-0.209 -0.277,-0.209c-0.184,0 -0.375,0.006 -0.56,0c-0.141,-0.006 -0.27,0.013 -0.369,0.123c0,2.153 0,4.313 0.006,6.459c0.08,0.129 0.203,0.154 0.345,0.148c0.221,-0.006 0.443,0 0.664,0c0.388,0 0.388,0 0.388,-0.381v-1.753c0,-0.043 -0.019,-0.092 0.024,-0.129c0.308,0.24 0.683,0.388 1.071,0.424c0.542,0.056 1.033,-0.08 1.446,-0.449c0.302,-0.277 0.523,-0.634 0.64,-1.028c0.166,-0.504 0.177,-1.015 0.134,-1.531zM15.247,17.364c-0.043,0.191 -0.141,0.363 -0.283,0.492c-0.16,0.135 -0.357,0.216 -0.566,0.216c-0.313,0.019 -0.621,-0.049 -0.898,-0.197c-0.068,-0.03 -0.111,-0.098 -0.105,-0.172v-1.114c0,-0.369 0.006,-0.739 0,-1.107c-0.006,-0.086 0.043,-0.16 0.123,-0.191c0.338,-0.16 0.689,-0.234 1.058,-0.16c0.259,0.037 0.48,0.203 0.585,0.443c0.092,0.197 0.148,0.412 0.16,0.628c0.037,0.393 0.037,0.787 -0.074,1.162zM33.408,16.995c0.461,0.086 0.935,0.092 1.397,0.019c0.27,-0.037 0.529,-0.117 0.769,-0.246c0.277,-0.16 0.48,-0.381 0.566,-0.689c0.216,-0.775 -0.117,-1.557 -0.923,-1.845c-0.394,-0.129 -0.812,-0.172 -1.224,-0.117c-0.972,0.111 -1.605,0.646 -1.894,1.575c-0.203,0.634 -0.178,1.279 -0.013,1.919c0.216,0.818 0.757,1.304 1.575,1.476c0.467,0.105 0.941,0.086 1.409,0.013c0.246,-0.043 0.492,-0.105 0.726,-0.197c0.141,-0.056 0.216,-0.141 0.209,-0.302c-0.006,-0.148 0,-0.302 0,-0.455c0,-0.184 -0.073,-0.24 -0.252,-0.197c-0.179,0.043 -0.351,0.08 -0.529,0.117c-0.381,0.08 -0.775,0.08 -1.157,0.013c-0.523,-0.105 -0.861,-0.553 -0.831,-1.107c0.055,0.005 0.116,0.01 0.172,0.023zM33.254,16.054c0.019,-0.148 0.062,-0.289 0.117,-0.424c0.184,-0.449 0.572,-0.603 0.966,-0.578c0.111,0.006 0.221,0.03 0.326,0.073c0.16,0.068 0.264,0.216 0.283,0.388c0.019,0.105 0.013,0.216 -0.019,0.32c-0.073,0.221 -0.252,0.313 -0.467,0.357c-0.129,0.03 -0.264,0.043 -0.4,0.03c-0.24,0 -0.486,-0.019 -0.726,-0.056c-0.093,-0.012 -0.093,-0.012 -0.08,-0.11z" fill="#ffffff"></path><path d="M14.322,27.167c0.039,-0.132 0.079,-0.258 0.119,-0.389c0.303,-1.023 0.607,-2.039 0.91,-3.063l0.039,-0.119c0.033,-0.119 0.145,-0.192 0.264,-0.192h1.004c0.251,0 0.303,0.073 0.218,0.311l-0.396,1.049c-0.442,1.149 -0.885,2.304 -1.327,3.452c-0.013,0.039 -0.033,0.079 -0.047,0.119c-0.047,0.139 -0.184,0.231 -0.33,0.218c-0.29,-0.006 -0.581,-0.006 -0.871,0c-0.205,0.006 -0.323,-0.086 -0.396,-0.27c-0.165,-0.436 -0.337,-0.878 -0.501,-1.313c-0.396,-1.037 -0.799,-2.073 -1.195,-3.116c-0.039,-0.079 -0.066,-0.172 -0.086,-0.258c-0.02,-0.132 0.026,-0.198 0.158,-0.198c0.376,-0.006 0.753,0 1.122,0c0.158,0 0.231,0.106 0.27,0.244c0.073,0.251 0.145,0.509 0.225,0.759c0.27,0.918 0.534,1.842 0.806,2.759c-0.006,0.007 0.001,0.007 0.014,0.007zM18.996,25.979v2.376c-0.013,0.132 -0.073,0.192 -0.205,0.198c-0.356,0.006 -0.706,0.006 -1.063,0c-0.132,0 -0.192,-0.066 -0.205,-0.192c-0.006,-0.039 -0.006,-0.086 -0.006,-0.125v-4.568c0.006,-0.205 0.059,-0.264 0.264,-0.264h0.951c0.205,0 0.264,0.059 0.264,0.264v2.311zM18.263,21.034c0.132,-0.013 0.264,0.013 0.389,0.066c0.258,0.099 0.436,0.337 0.449,0.614c0.053,0.601 -0.35,0.904 -0.885,0.891c-0.073,0 -0.145,-0.013 -0.218,-0.026c-0.409,-0.099 -0.62,-0.416 -0.581,-0.871c0.033,-0.363 0.317,-0.634 0.706,-0.667c0.047,-0.007 0.094,-0.013 0.14,-0.007zM36.27,25.596c0.006,-0.075 -0.02,-0.231 -0.02,-0.237c-0.013,-0.125 -0.039,-0.251 -0.073,-0.37c-0.244,-0.871 -0.792,-1.446 -1.683,-1.67c-0.416,-0.099 -0.838,-0.112 -1.261,-0.047c-0.891,0.132 -1.532,0.607 -1.842,1.452c-0.303,0.806 -0.297,1.69 0.006,2.495c0.264,0.732 0.792,1.195 1.552,1.386c0.403,0.099 0.825,0.125 1.241,0.066c1.386,-0.165 1.961,-1.215 2.053,-2.125c0,0 0.033,-0.274 0.033,-0.399zM34.686,26.823c-0.039,0.139 -0.099,0.264 -0.184,0.383c-0.145,0.205 -0.376,0.337 -0.627,0.356c-0.125,0.013 -0.251,0.013 -0.376,-0.013c-0.278,-0.053 -0.509,-0.237 -0.62,-0.495c-0.099,-0.205 -0.158,-0.429 -0.178,-0.654c-0.033,-0.389 -0.039,-0.779 0.053,-1.162c0.033,-0.152 0.099,-0.303 0.178,-0.436c0.145,-0.237 0.396,-0.389 0.673,-0.409c0.125,-0.013 0.251,-0.013 0.376,0.013c0.264,0.053 0.482,0.225 0.601,0.468c0.112,0.231 0.178,0.489 0.192,0.746c0.006,0.119 0.013,0.237 0.006,0.356c0.018,0.293 -0.015,0.577 -0.094,0.847zM24.699,21.081h-0.918c-0.251,0 -0.297,0.047 -0.297,0.297v2.139c0,0.047 0.02,0.092 -0.013,0.139c-0.059,-0.006 -0.092,-0.047 -0.139,-0.073c-0.687,-0.403 -1.406,-0.475 -2.133,-0.139c-0.509,0.237 -0.825,0.667 -1.03,1.175c-0.198,0.489 -0.244,1.004 -0.231,1.525c0,0.489 0.112,0.97 0.33,1.406c0.251,0.482 0.614,0.851 1.142,1.01c0.72,0.225 1.393,0.112 2.006,-0.343c0.047,-0.026 0.073,-0.073 0.132,-0.086c0.033,0.073 0.059,0.152 0.073,0.231c0.026,0.106 0.119,0.178 0.231,0.178h0.158c0.237,0 0.468,0.006 0.7,0c0.184,0 0.237,-0.059 0.244,-0.251v-6.957c-0.005,-0.205 -0.057,-0.251 -0.255,-0.251zM23.491,25.939v1.201c0.013,0.079 -0.033,0.152 -0.106,0.184c-0.317,0.178 -0.68,0.251 -1.037,0.198c-0.303,-0.033 -0.568,-0.218 -0.706,-0.489c-0.106,-0.211 -0.165,-0.436 -0.184,-0.667c-0.053,-0.416 -0.02,-0.838 0.079,-1.241c0.033,-0.112 0.073,-0.218 0.132,-0.323c0.139,-0.258 0.403,-0.423 0.693,-0.442c0.35,-0.033 0.7,0.033 1.016,0.178c0.079,0.026 0.125,0.106 0.119,0.192c-0.013,0.41 -0.006,0.807 -0.006,1.209zM28.685,26.461c0.383,-0.026 0.765,-0.099 1.109,-0.284c0.35,-0.172 0.594,-0.495 0.667,-0.878c0.047,-0.237 0.047,-0.489 -0.006,-0.726c-0.139,-0.594 -0.515,-0.963 -1.082,-1.155c-0.317,-0.099 -0.654,-0.139 -0.984,-0.125c-1.109,0.026 -1.953,0.587 -2.297,1.697c-0.231,0.732 -0.198,1.479 0.026,2.211c0.231,0.753 0.759,1.208 1.511,1.413c0.323,0.079 0.66,0.112 0.99,0.099c0.482,-0.006 0.963,-0.099 1.419,-0.27c0.192,-0.073 0.237,-0.139 0.237,-0.343v-0.475c-0.006,-0.192 -0.086,-0.258 -0.278,-0.211c-0.145,0.039 -0.284,0.073 -0.429,0.106c-0.442,0.106 -0.904,0.125 -1.354,0.047c-0.449,-0.086 -0.753,-0.343 -0.871,-0.792c-0.033,-0.132 -0.059,-0.264 -0.073,-0.403c0.033,0 0.066,0 0.092,0.013c0.439,0.076 0.881,0.109 1.323,0.076zM27.306,25.404c0.047,-0.258 0.106,-0.509 0.264,-0.72c0.244,-0.323 0.581,-0.416 0.963,-0.376c0.033,0 0.059,0.013 0.092,0.013c0.462,0.073 0.574,0.442 0.489,0.799c-0.066,0.264 -0.284,0.363 -0.528,0.409c-0.132,0.026 -0.27,0.039 -0.409,0.033c-0.27,-0.006 -0.534,-0.026 -0.799,-0.066c-0.059,-0.006 -0.085,-0.032 -0.072,-0.092z" fill="#ffffff"></path><path d="M24.374,35.998c-0.231,-0.006 -0.463,-0.006 -0.693,0c-0.318,-0.017 -0.636,-0.029 -0.954,-0.052c-0.844,-0.064 -1.683,-0.191 -2.503,-0.382c-2.839,-0.659 -5.331,-1.983 -7.505,-3.908c-0.203,-0.18 -0.393,-0.364 -0.59,-0.55c-0.046,-0.041 -0.087,-0.099 -0.11,-0.156c-0.035,-0.081 -0.017,-0.168 0.041,-0.231c0.058,-0.063 0.151,-0.087 0.231,-0.052c0.052,0.023 0.104,0.046 0.151,0.075c2.076,1.284 4.342,2.22 6.718,2.775c0.798,0.185 1.601,0.329 2.411,0.434c1.162,0.145 2.335,0.197 3.503,0.156c0.63,-0.017 1.255,-0.075 1.879,-0.156c1.457,-0.185 2.897,-0.515 4.29,-0.977c0.734,-0.242 1.451,-0.521 2.151,-0.844c0.104,-0.058 0.231,-0.075 0.347,-0.046c0.191,0.046 0.306,0.242 0.26,0.434c-0.006,0.023 -0.017,0.052 -0.029,0.075c-0.046,0.087 -0.11,0.162 -0.191,0.219c-0.665,0.521 -1.382,0.977 -2.139,1.359c-1.428,0.722 -2.955,1.237 -4.527,1.532c-0.908,0.162 -1.821,0.26 -2.741,0.295zM34.313,30.361c0.382,0.012 0.757,0.035 1.127,0.133c0.104,0.029 0.203,0.064 0.3,0.11c0.133,0.052 0.219,0.18 0.237,0.318c0.023,0.162 0.029,0.329 0.017,0.497c-0.075,0.989 -0.382,1.942 -0.891,2.792c-0.185,0.306 -0.41,0.584 -0.67,0.827c-0.052,0.052 -0.116,0.093 -0.185,0.116c-0.11,0.029 -0.18,-0.029 -0.185,-0.139c0.006,-0.058 0.017,-0.116 0.041,-0.174c0.203,-0.544 0.399,-1.081 0.555,-1.642c0.093,-0.306 0.156,-0.618 0.197,-0.937c0.012,-0.116 0.017,-0.231 0.006,-0.347c-0.006,-0.197 -0.133,-0.364 -0.324,-0.422c-0.18,-0.058 -0.364,-0.093 -0.555,-0.104c-0.532,-0.023 -1.063,0 -1.59,0.07l-0.699,0.087c-0.075,0.006 -0.145,0 -0.185,-0.07c-0.041,-0.07 -0.023,-0.139 0.017,-0.208c0.046,-0.064 0.104,-0.122 0.174,-0.162c0.428,-0.306 0.908,-0.492 1.417,-0.613c0.392,-0.081 0.791,-0.12 1.196,-0.132z" fill="#ffffff"></path></g></g></g></svg>